<svg xmlns="http://www.w3.org/2000/svg" viewBox="0 0 740 560" fill="none"><defs><linearGradient id="grad" x1="0" y1="0" x2="1" y2="1"><stop offset="0%" stop-color="#6D28D9"/><stop offset="100%" stop-color="#38BDF8"/></linearGradient></defs><rect width="740" height="560" rx="48" fill="#0f172a"/><circle cx="190" cy="170" r="90" fill="url(#grad)" opacity="0.16"/><rect x="84" y="280" width="580" height="220" rx="36" fill="#111827" stroke="#334155" stroke-width="2"/><rect x="136" y="318" width="136" height="16" rx="8" fill="#334155"/><rect x="136" y="348" width="208" height="16" rx="8" fill="#334155"/><rect x="136" y="378" width="292" height="16" rx="8" fill="#334155"/><rect x="136" y="408" width="180" height="16" rx="8" fill="#334155"/><rect x="384" y="318" width="198" height="16" rx="8" fill="#1d2939"/><rect x="384" y="348" width="148" height="16" rx="8" fill="#1d2939"/><rect x="384" y="378" width="220" height="16" rx="8" fill="#1d2939"/><rect x="384" y="408" width="128" height="16" rx="8" fill="#1d2939"/><path d="M120 166C120 132 148 104 182 104H322C356 104 384 132 384 166V238C384 272 356 300 322 300H182C148 300 120 272 120 238V166Z" fill="#0f172a" stroke="#334155" stroke-width="4"/><rect x="166" y="190" width="168" height="18" rx="9" fill="#38bdf8"/><rect x="166" y="224" width="220" height="18" rx="9" fill="#475569"/></svg>