<svg width="38" height="38" viewBox="0 0 38 38" fill="none" xmlns="http://www.w3.org/2000/svg">
<path d="M8.59856 18.9496L18.2928 24.7267C18.6082 24.9147 19.0012 24.9147 19.3166 24.7267L35.2103 15.2551C35.5357 15.0612 35.5357 14.59 35.2103 14.3961L19.3166 4.92439C19.0012 4.73643 18.6082 4.73643 18.2928 4.92439L2.39907 14.3961C2.07369 14.59 2.07369 15.0612 2.39907 15.2551L8.59856 18.9496ZM8.59856 18.9496L8.59856 29.1554C8.59856 29.4974 8.77342 29.8158 9.06211 29.9993L17.7703 35.5347C18.405 35.9382 19.2125 35.9514 19.8601 35.569L29.2998 29.9949C29.6044 29.815 29.7913 29.4876 29.7913 29.1338L29.7913 18.9496" stroke="#F2A900" stroke-width="2"/>
</svg>
